<svg width="24" height="24" viewBox="0 0 24 24" fill="none" xmlns="http://www.w3.org/2000/svg">
<path d="M18.654 13.0898C18.7153 12.7297 18.7474 12.3652 18.75 12C18.7474 11.6348 18.7153 11.2703 18.654 10.9102L20.229 9.3885C20.4761 9.1494 20.5289 8.7729 20.3572 8.475L19.2322 6.525C19.0583 6.22835 18.7061 6.08632 18.375 6.17925L16.275 6.77925C15.7064 6.31615 15.0663 5.9486 14.3797 5.691L13.8525 3.5685C13.7692 3.2345 13.4692 3 13.125 3H10.875C10.5308 3 10.2308 3.2345 10.1475 3.5685L9.61724 5.691C8.93172 5.94889 8.29265 6.31643 7.72499 6.77925L5.62499 6.17925C5.29389 6.0866 4.94191 6.22856 4.76774 6.525L3.64274 8.475C3.47064 8.77308 3.52352 9.15003 3.77099 9.38925L5.34599 10.911C5.28471 11.2708 5.2526 11.635 5.24999 12C5.25256 12.3652 5.28467 12.7297 5.34599 13.0898L3.77099 14.6115C3.5239 14.8506 3.47104 15.2271 3.64274 15.525L4.76774 17.475C4.90185 17.7073 5.14978 17.8503 5.41799 17.85C5.4877 17.8497 5.55706 17.8401 5.62424 17.8215L7.72424 17.2215C8.29281 17.6846 8.93292 18.0522 9.61949 18.3098L10.1497 20.4323C10.2331 20.7651 10.5318 20.999 10.875 21H13.125C13.4692 21 13.7692 20.7655 13.8525 20.4315L14.3827 18.309C15.0683 18.0511 15.7073 17.6836 16.275 17.2208L18.375 17.8207C18.4422 17.8394 18.5115 17.8489 18.5812 17.8492C18.8495 17.8495 19.0974 17.7065 19.2315 17.4742L20.3565 15.5242C20.5286 15.2262 20.4757 14.8492 20.2282 14.61L18.654 13.0898ZM12 15C10.3431 15 8.99999 13.6569 8.99999 12C8.99999 10.3431 10.3431 9 12 9C13.6568 9 15 10.3431 15 12C15 12.7956 14.6839 13.5587 14.1213 14.1213C13.5587 14.6839 12.7956 15 12 15Z" fill="#007856"/>
</svg>
