<?xml version="1.0" encoding="UTF-8"?><svg id="Cog" xmlns="http://www.w3.org/2000/svg" width="24" height="24" viewBox="0 0 24 24"><path d="M18.65,13.09c.13-.72,.13-1.46,0-2.18,2.22-1.93,2.12-1.95,.58-4.39-.41-.89-2.34,.21-2.96,.25-.57-.46-1.21-.83-1.9-1.09-.6-2.95-.56-2.78-3.5-2.69-.98-.1-.99,2.14-1.26,2.69-.69,.26-1.32,.63-1.89,1.09-.63-.04-2.54-1.15-2.96-.25-1.55,2.43-1.64,2.46,.58,4.39-.13,.72-.13,1.46,0,2.18-2.23,1.93-2.12,1.95-.58,4.39,.41,.9,2.34-.21,2.96-.25,.57,.46,1.21,.83,1.9,1.09,.6,2.95,.56,2.78,3.51,2.69,.98,.1,.99-2.14,1.26-2.69,.69-.26,1.32-.63,1.89-1.09,.63,.04,2.54,1.15,2.96,.25,1.54-2.43,1.64-2.46-.58-4.38Zm-6.65,1.91c-3.89,.06-3.89-6.06,0-6,3.9-.06,3.88,6.06,0,6Z" style="fill:#007856;"/></svg>