<?xml version="1.0" encoding="UTF-8"?><svg id="Eye" xmlns="http://www.w3.org/2000/svg" width="24" height="24" viewBox="0 0 24 24"><g id="Eye-2"><path id="Eye_bg" d="M12,8.25c5.3,0,8.74,5.37,8.89,5.6,.15,.24,.15,.55,0,.8l-.15,.22c-.73,1.06-3.98,5.38-8.74,5.38s-7.88-4.15-8.69-5.31l-.19-.29c-.15-.24-.15-.55,0-.8l.15-.22c.73-1.06,3.98-5.38,8.74-5.38Z" fill="#007856"/><circle id="Circle" cx="12" cy="14.25" r="3" transform="translate(-3.06 25.21) rotate(-85.93)" fill="#fff"/></g><g id="lashes"><path d="M18.5,7.83l.75-1.12c.22-.33,.66-.43,1-.23,.34,.2,.47,.63,.29,.99l-.04,.08-.75,1.12c-.22,.33-.66,.43-1,.23-.34-.2-.47-.63-.29-.99l.04-.08,.75-1.12-.75,1.12h0Z" fill="#007856"/><path d="M3.71,6.5c.32-.21,.74-.15,.99,.14l.05,.07,.75,1.12c.22,.33,.15,.78-.17,1.02-.32,.24-.77,.19-1.02-.11l-.05-.07-.75-1.12c-.11-.17-.15-.37-.11-.56,.04-.2,.15-.37,.32-.48Z" fill="#007856"/><path d="M13.9,5.82l.38-1.5c.1-.39,.48-.63,.87-.56,.39,.07,.66,.44,.6,.83l-.02,.09-.38,1.5c-.1,.39-.48,.63-.87,.56-.39-.07-.66-.44-.6-.83l.02-.09,.38-1.5-.38,1.5h0Z" fill="#007856"/><path d="M8.82,3.77c.37-.09,.75,.11,.88,.46l.03,.08,.37,1.5c.1,.38-.13,.78-.5,.9-.38,.12-.78-.08-.93-.45l-.03-.08-.37-1.5c-.1-.4,.14-.81,.55-.91Z" fill="#007856"/></g></svg>