<svg version="1.0" encoding="UTF-8"?><svg id="Trash" xmlns="http://www.w3.org/2000/svg" width="14" height="14" viewBox="0 0 14 14"><path id="Bin" d="M2.26,12.37c.07,.91,.83,1.62,1.75,1.63h5.99c.92,0,1.68-.71,1.75-1.63l.55-7.71H1.71l.55,7.71Z" fill="#007856"/><g id="Top"><path id="outline" d="M13.42,2.33h-3.5V1.17c0-.64-.52-1.17-1.17-1.17h-3.5c-.64,0-1.17,.52-1.17,1.17v1.17H.58c-.32,0-.58,.26-.58,.58s.26,.58,.58,.58H13.42c.32,0,.58-.26,.58-.58s-.26-.58-.58-.58Z" fill="#007856"/><rect id="middle" x="5.25" y="1.17" width="3.5" height="1.17" fill="#fff"/></g></svg>