<?xml version="1.0" encoding="UTF-8"?><svg id="Trash" xmlns="http://www.w3.org/2000/svg" width="16.47" height="19.55" viewBox="0 0 16.47 19.55"><path id="Bin" d="M4.73,17.92c.07,.91,.83,1.62,1.75,1.63h5.99c.92,0,1.68-.71,1.75-1.63l.55-7.71H4.18l.55,7.71Z" fill="#007856"/><g id="Top"><path id="outline" d="M15.89,7.88h-3.5v-1.17c0-.64-.52-1.17-1.17-1.17h-3.5c-.64,0-1.17,.52-1.17,1.17v1.17H3.06c-.32,0-.58,.26-.58,.58s.26,.58,.58,.58H15.89c.32,0,.58-.26,.58-.58s-.26-.58-.58-.58Z" fill="#007856"/><rect id="middle" x="7.72" y="6.71" width="3.5" height="1.17" fill="#fff"/></g></svg>