<svg width="14" height="14" viewBox="0 0 14 14" fill="none" xmlns="http://www.w3.org/2000/svg">
<path d="M2.2575 12.3748C2.32573 13.2892 3.08597 13.9971 4.00283 14H9.99717C10.914 13.9971 11.6743 13.2892 11.7425 12.3748L12.2932 4.66667H1.70683L2.2575 12.3748ZM13.4167 2.33333H9.91667V1.16667C9.91667 0.522334 9.39433 0 8.75 0H5.25C4.60567 0 4.08333 0.522334 4.08333 1.16667V2.33333H0.583333C0.261167 2.33333 0 2.5945 0 2.91667C0 3.23883 0.261167 3.5 0.583333 3.5H13.4167C13.7388 3.5 14 3.23883 14 2.91667C14 2.5945 13.7388 2.33333 13.4167 2.33333ZM5.25 1.16667H8.75V2.33333H5.25V1.16667Z" fill="#007856"/>
</svg>
